# AST/ASF file generated using VICON BodyLanguage
# -----------------------------------------------
:version 1.10
:name VICON
:units
  mass 1.0
  length 0.45
  angle deg
:documentation
   .ast/.asf automatically generated from VICON data using
   VICON BodyBuilder and BodyLanguage model FoxedUp or BRILLIANT.MOD
:root
   order TX TY TZ RX RY RZ
   axis XYZ
   position 0 0 0  
   orientation 0 0 0 
:bonedata
  begin
     id 1 
     name lhipjoint
     direction 0.70531 -0.63749 0.310071 
     length 2.59589 
     axis 0 0 0  XYZ
  end
  begin
     id 2 
     name lfemur
     direction 0.34202 -0.939693 0  
     length 6.19797  
     axis 0 0 20  XYZ
    dof rx ry rz
    limits (-160.0 20.0)
           (-70.0 70.0)
           (-60.0 70.0)
  end
  begin
     id 3 
     name ltibia
     direction 0.34202 -0.939693 0   
     length 7.80054   
     axis 0 0 20   XYZ
    dof rx
    limits (-10.0 170.0)
  end
  begin
     id 4 
     name lfoot
     direction 0.0828572 -0.227648 0.970212   
     length 1.88124   
     axis -90 7.62852e-016 20   XYZ
    dof rx rz
    limits (-45.0 90.0)
           (-70.0 20.0)
  end
  begin
     id 5 
     name ltoes
     direction 1.53544e-011 -4.219e-011 1   
     length 0.948015   
     axis -90 7.62852e-016 20   XYZ
    dof rx
    limits (-90.0 20.0)
  end
  begin
     id 6 
     name rhipjoint
     direction -0.730062 -0.614543 0.29891   
     length 2.69282  
     axis 0 0 0  XYZ 
  end
  begin
     id 7 
     name rfemur
     direction -0.34202 -0.939693 0   
     length 5.86298   
     axis 0 0 -20   XYZ
    dof rx ry rz
    limits (-160.0 20.0)
           (-70.0 70.0)
           (-70.0 60.0)
  end
  begin
     id 8 
     name rtibia
     direction -0.34202 -0.939693 0   
     length 7.72374   
     axis 0 0 -20   XYZ
    dof rx
    limits (-10.0 170.0)
 end
 begin
     id 9 
     name rfoot
     direction -0.0967421 -0.265797 0.959163   
     length 2.02368  
     axis -90 -7.62852e-016 -20   XYZ
    dof rx rz
    limits (-45.0 90.0)
           (-20.0 70.0)
  end
  begin
     id 10 
     name rtoes
     direction -1.53524e-011 -4.21768e-011 1   
     length 1.01373   
     axis -90 -7.62852e-016 -20   XYZ
    dof rx
    limits (-90.0 20.0)
  end
  begin
     id 11 
     name lowerback
     direction 0.00561702 0.992801 -0.119643   
     length 2.02816   
     axis 0 0 0   XYZ
    dof rx ry rz
    limits (-20.0 45.0)
           (-30.0 30.0)
           (-30.0 30.0)
  end
  begin
     id 12 
     name upperback
     direction 0.00155544 0.995735 -0.0922509   
     length 2.02265   
     axis 0 0 0   XYZ
    dof rx ry rz
    limits (-20.0 45.0)
           (-30.0 30.0)
           (-30.0 30.0)
  end
  begin
     id 13 
     name thorax
     direction -0.000937535 0.999317 -0.0369292   
     length 2.04823   
     axis 0 0 0   XYZ
    dof rx ry rz
    limits (-20.0 45.0)
           (-30.0 30.0)
           (-30.0 30.0)
  end
  begin
     id 14 
     name lowerneck
     direction -0.0813151 0.981659 0.172436   
     length 1.8875   
     axis 0 0 0   XYZ
    dof rx ry rz
    limits (-20.0 45.0)
           (-30.0 30.0)
           (-30.0 30.0)
  end
  begin
     id 15 
     name upperneck
     direction 0.119359 0.955672 -0.269157   
     length 1.92801   
     axis 0 0 0   XYZ
    dof rx ry rz
    limits (-20.0 45.0)
           (-30.0 30.0)
           (-30.0 30.0)
  end
  begin
     id 16
     name head
     direction 0.0421007 0.992672 -0.113268  
     length 1.95809  
     axis 0 0 0   XYZ
    dof rx ry rz
    limits (-20.0 45.0)
           (-30.0 30.0)
           (-30.0 30.0)
  end
  begin
     id 17 
     name lclavicle
     direction 0.944093 0.32865 -0.0260136  
     length 3.84992  
     axis 0 0 0   XYZ
    dof ry rz
    limits (-20.0 10.0)
           (0.0 20.0)
  end
  begin
     id 18 
     name lhumerus
     direction 1 -4.48979e-011 -1.27712e-029   
     length 5.53593   
     axis 180 -30 -90   XYZ
    dof rx ry rz
    limits (-60.0 90.0)
           (-90.0 90.0)
           (-90.0 90.0)
  end
  begin
     id 19
     name lradius
     direction 1 -4.48966e-011 1.00051e-028   
     length 3.13345   
     axis 180 -30 -90   XYZ
    dof rx
    limits (-10.0 170.0)
  end
  begin
     id 20
     name lwrist
     direction 1 -4.4896e-011 2.56952e-028   
     length 1.56673   
     axis -5.12785e-016 90 90   XYZ
    dof ry
    limits (-180.0 0.0)
 end
  begin
     id 21 
     name lhand
     direction 1 -4.48934e-011 5.13905e-028   
     length 0.713374   
     axis -3.27915e-016 90 90   XYZ
    dof rx rz
    limits (-90.0 90.0)
           (-45.0 45.0)
  end
  begin
     id 22 
     name lfingers
     direction 1 -4.48973e-011 1.02781e-027   
     length 0.575141   
     axis -6.5583e-016 90 90   XYZ
    dof rx
    limits (0.0 90.0)
  end
  begin
     id 23
     name lthumb
     direction 0.707107 -6.34883e-011 0.707107   
     length 0.82579   
     axis -90 45 2.85299e-015   XYZ
    dof rx rz
    limits (-45.0 45.0)
           (-45.0 45.0)
  end
  begin
     id 24 
     name rclavicle
     direction -0.936895 0.34884 0.0232243   
     length 3.53304  
     axis 0 0 0   XYZ 
    dof ry rz
    limits (-10.0 20.0)
           (-20.0 0.0)
  end
  begin
     id 25 
     name rhumerus
     direction -1 -4.48965e-011 1.05514e-027  
     length 5.4685   
     axis 180 30 90   XYZ
    dof rx ry rz
    limits (-90.0 60.0)
           (-90.0 90.0)
           (-90.0 90.0)
  end
  begin
     id 26 
     name rradius
     direction -1 -4.48964e-011 -1.1079e-027   
     length 3.22411   
     axis 180 30 90   XYZ
    dof rx
    limits (-10.0 170.0)
  end
  begin
     id 27 
     name rwrist
     direction -1 -4.48973e-011 2.56952e-028   
     length 1.61206   
     axis -5.12785e-016 -90 -90   XYZ
    dof ry
    limits (-180.0 0.0)
  end
  begin
     id 28
     name rhand
     direction -1 -4.48957e-011 5.13905e-028   
     length 0.74528   
     axis -3.27915e-016 -90 -90   XYZ
    dof rx rz
    limits (-90.0 90.0)
           (-45.0 45.0)
  end
  begin
     id 29
     name rfingers
     direction -1 -4.4901e-011 1.02781e-027   
     length 0.600864   
     axis -6.5583e-016 -90 -90   XYZ
    dof rx
    limits (0.0 90.0)
  end
  begin
     id 30
     name rthumb
     direction -0.707107 -6.34972e-011 0.707107   
     length 0.862724   
     axis -90 -45 -2.85299e-015   XYZ
    dof rx rz
    limits (-45.0 45.0)
           (-45.0 45.0)
  end
:hierarchy
  begin
    root lhipjoint rhipjoint lowerback
    lhipjoint lfemur
    lfemur ltibia
    ltibia lfoot
    lfoot ltoes
    rhipjoint rfemur
    rfemur rtibia
    rtibia rfoot
    rfoot rtoes
    lowerback upperback
    upperback thorax
    thorax lowerneck lclavicle rclavicle
    lowerneck upperneck
    upperneck head
    lclavicle lhumerus
    lhumerus lradius
    lradius lwrist
    lwrist lhand lthumb
    lhand lfingers
    rclavicle rhumerus
    rhumerus rradius
    rradius rwrist
    rwrist rhand rthumb
    rhand rfingers
  end

#!OML:ASF G:\Work\Work\Patient Classification 1\Liu\Session 1\Liu.ASF
:FULLY-SPECIFIED
:DEGREES
372
root 10.5074 15.839 23.3223 7.3184 9.05872 7.81769
lowerback -1.6811 -3.74608 -6.84323
upperback 0.60385 -4.80102 -1.77317
thorax 1.97532 -2.46119 1.80836
lowerneck -23.873 -4.99152 -11.4462
upperneck 31.0703 -6.28623 10.1071
head 15.7342 -2.58761 5.02271
rclavicle 5.74123e-014 2.77771e-014
rhumerus -53.0285 18.8942 -95.9227
rradius 46.92
rwrist -15.2066
rhand -15.3543 19.2196
rfingers 7.12502
rthumb 10.8231 -10.4816
lclavicle 5.74123e-014 2.77771e-014
lhumerus -15.9229 -20.8217 81.5864
lradius 35.0021
lwrist 6.41405
lhand -18.533 30.1653
lfingers 7.12502
lthumb 7.75586 60.0031
rfemur -42.0894 13.3651 1.33555
rtibia 19.9092
rfoot -27.4523 -25.0868
rtoes 1.88562
lfemur 18.044 -0.926843 -31.7627
ltibia 4.45278e-014
lfoot -11.7776 -5.53528
ltoes 9.10482
373
root 10.4961 15.8227 23.5776 7.26245 9.334 8.0495
lowerback -1.69713 -3.86139 -7.17943
upperback 0.649611 -4.94181 -1.77614
thorax 2.07244 -2.53843 1.97809
lowerneck -23.87 -4.908 -11.3216
upperneck 31.0811 -6.16994 9.98616
head 15.7092 -2.54043 4.97145
rclavicle 3.41405e-014 1.86112e-014
rhumerus -53.2634 18.8724 -96.0001
rradius 46.7534
rwrist -15.1305
rhand -15.2339 19.0896
rfingers 7.12502
rthumb 10.9392 -10.6055
lclavicle 3.41405e-014 1.86112e-014
lhumerus -15.4622 -20.1865 81.3349
lradius 35.5178
lwrist 6.23872
lhand -18.2098 30.7844
lfingers 7.12502
lthumb 8.06787 60.6104
rfemur -41.944 12.5036 1.59683
rtibia 19.9189
rfoot -27.5567 -24.8048
rtoes -3.41183
lfemur 19.0714 -0.94025 -31.6489
ltibia 6.04305e-014
lfoot -11.3451 -6.08372
ltoes 9.37568
374
root 10.4893 15.7981 23.8291 7.28141 9.2647 8.56363
lowerback -1.65946 -3.92681 -7.77217
upperback 0.61952 -5.01723 -1.8722
thorax 2.07036 -2.5809 2.2029
lowerneck -23.9109 -4.83049 -11.3532
upperneck 31.1552 -6.08887 10.1118
head 15.7484 -2.49325 5.05488
rclavicle 5.5214e-014 1.635e-014
rhumerus -53.5181 18.982 -96.1512
rradius 46.5253
rwrist -15.1575
rhand -14.8274 18.8251
rfingers 7.12502
rthumb 11.3312 -10.8488
lclavicle 5.5214e-014 1.635e-014
lhumerus -15.285 -19.1918 81.092
lradius 36.1975
lwrist 6.21048
lhand -18.0715 31.9697
lfingers 7.12502
lthumb 8.20134 61.7905
rfemur -41.7913 11.9014 1.53665
rtibia 19.9155
rfoot -26.3448 -23.7321
rtoes 1.97207
lfemur 20.0576 -0.664174 -31.8548
ltibia 1.27222e-014
lfoot -10.541 -6.49636
ltoes 9.70332
375
root 10.4882 15.7805 24.0818 7.1211 9.27407 9.16849
lowerback -1.41226 -4.00056 -8.32434
upperback 0.63457 -5.12387 -2.04123
thorax 1.99164 -2.63639 2.34208
lowerneck -23.9252 -4.77749 -11.3117
upperneck 31.1493 -6.04359 10.1586
head 15.742 -2.46251 5.07769
rclavicle -1.45377e-014 1.36789e-014
rhumerus -53.6645 18.9986 -96.2633
rradius 46.1925
rwrist -15.2583
rhand -14.309 18.349
rfingers 7.12502
rthumb 11.8311 -11.2968
lclavicle -1.45377e-014 1.36789e-014
lhumerus -15.1038 -18.2274 80.8515
lradius 36.5894
lwrist 5.77189
lhand -18.3317 32.221
lfingers 7.12502
lthumb 7.95022 62.0515
rfemur -41.2988 11.282 1.47481
rtibia 20.1926
rfoot -25.8497 -23.0508
rtoes 4.6529
lfemur 21.2306 -0.435969 -32.1545
ltibia -7.31528e-014
lfoot -9.22406 -6.39881
ltoes 8.38061
376
root 10.4729 15.7674 24.3405 6.96871 9.2266 9.46643
lowerback -1.26657 -4.04379 -8.76289
upperback 0.636834 -5.18695 -2.0775
thorax 1.95528 -2.67085 2.55074
lowerneck -23.9265 -4.69919 -11.3065
upperneck 31.1739 -5.96358 10.2461
head 15.7452 -2.41675 5.13427
rclavicle -1.59711e-014 2.60905e-015
rhumerus -53.8221 18.8732 -96.2158
rradius 46.1022
rwrist -15.3927
rhand -13.75 17.9715
rfingers 7.12502
rthumb 12.3702 -11.6425
lclavicle -1.59711e-014 2.60905e-015
lhumerus -15.0448 -17.5673 80.7247
lradius 36.9755
lwrist 5.77393
lhand -18.4441 31.5179
lfingers 7.12502
lthumb 7.84175 61.3525
rfemur -41.0109 10.8617 1.90879
rtibia 20.6641
rfoot -23.6493 -23.6196
rtoes 4.12133
lfemur 22.2778 -0.158549 -32.0548
ltibia -4.77083e-014
lfoot -7.76538 -6.17286
ltoes 4.66606
377
root 10.4394 15.7393 24.6155 6.62034 9.42306 9.52131
lowerback -1.03529 -4.15355 -9.18222
upperback 0.686152 -5.34893 -1.99314
thorax 1.94228 -2.75742 2.87172
lowerneck -24.0905 -4.64 -11.3413
upperneck 31.3853 -5.8872 10.3225
head 15.8771 -2.37818 5.20493
rclavicle -1.46883e-014 9.54166e-015
rhumerus -53.9552 18.7812 -96.1485
rradius 45.9131
rwrist -15.5185
rhand -13.2515 17.8632
rfingers 7.12502
rthumb 12.8507 -11.7212
lclavicle -1.46883e-014 9.54166e-015
lhumerus -15.2704 -17.1444 80.7524
lradius 37.4538
lwrist 6.99857
lhand -18.8451 31.2522
lfingers 7.12502
lthumb 7.45464 61.1009
rfemur -40.0443 7.82007 4.28458
rtibia 21.2601
rfoot -20.6691 -20.8512
rtoes 3.7988
lfemur 23.5769 -0.105007 -31.5506
ltibia -6.36111e-015
lfoot -6.27946 -6.16154
ltoes 1.03742
378
root 10.4234 15.7025 24.893 6.35563 9.33738 9.60699
lowerback -0.915172 -4.18088 -9.34191
upperback 0.627833 -5.40034 -2.0169
thorax 1.83284 -2.77868 2.94379
lowerneck -23.9929 -4.54462 -11.32
upperneck 31.4746 -5.78166 10.3455
head 15.8808 -2.33229 5.23854
rclavicle 5.62778e-014 -8.82107e-015
rhumerus -54.1608 18.7433 -96.2338
rradius 45.413
rwrist -15.4572
rhand -13.1262 18.0112
rfingers 7.12502
rthumb 12.9715 -11.5656
lclavicle 5.62778e-014 -8.82107e-015
lhumerus -15.7308 -16.7711 80.8283
lradius 37.7151
lwrist 8.3458
lhand -20.006 30.226
lfingers 7.12502
lthumb 6.33401 60.1113
rfemur -39.3491 4.6107 6.52078
rtibia 22.003
rfoot -17.7776 -17.3193
rtoes 1.75043
lfemur 24.8575 0.201344 -31.1549
ltibia 3.81667e-014
lfoot -4.58387 -6.19521
ltoes 1.28866
379
root 10.4065 15.6743 25.1604 6.16529 9.02088 9.43841
lowerback -0.954249 -4.15721 -9.26945
upperback 0.605388 -5.36782 -1.97645
thorax 1.82451 -2.76128 2.94589
lowerneck -23.7312 -4.44795 -11.4333
upperneck 31.2862 -5.69688 10.5923
head 15.7318 -2.28024 5.37368
rclavicle 5.28022e-017 3.81418e-014
rhumerus -54.2108 18.7972 -96.3326
rradius 44.8975
rwrist -15.3096
rhand -13.7188 19.0243
rfingers 7.12502
rthumb 12.4002 -10.5879
lclavicle 5.28022e-017 3.81418e-014
lhumerus -16.0545 -16.0382 80.7348
lradius 37.8469
lwrist 8.70452
lhand -20.4933 27.9291
lfingers 7.12502
lthumb 5.86359 57.828
rfemur -39.1611 2.77684 8.27788
rtibia 23.1766
rfoot -15.3936 -14.545
rtoes -2.14459
lfemur 25.9482 0.72262 -30.5195
ltibia -9.54166e-014
lfoot -2.55297 -5.6771
ltoes 4.88974
380
root 10.3849 15.6759 25.432 6.05329 8.75108 9.19327
lowerback -1.17063 -4.16044 -9.17602
upperback 0.610898 -5.34914 -1.91121
thorax 1.94714 -2.75633 2.94568
lowerneck -23.6789 -4.43676 -11.5036
upperneck 31.3063 -5.71993 10.7528
head 15.7429 -2.27874 5.45478
rclavicle 2.8069e-014 4.47017e-014
rhumerus -54.0853 18.7438 -96.3392
rradius 44.3478
rwrist -15.0259
rhand -14.8625 21.0915
rfingers 7.12502
rthumb 11.2974 -8.58424
lclavicle 2.8069e-014 4.47017e-014
lhumerus -16.4646 -15.439 80.6228
lradius 38.425
lwrist 9.29922
lhand -20.4896 28.5084
lfingers 7.12502
lthumb 5.86709 58.4072
rfemur -39.1311 1.73424 9.75272
rtibia 24.4864
rfoot -11.5415 -13.2874
rtoes -12.6049
lfemur 26.8276 1.18633 -29.8101
ltibia -5.08889e-014
lfoot -0.183236 -4.4384
ltoes 7.36371
